<?xml version="1.0" encoding="UTF-8" standalone="no"?><!-- Generator: Gravit.io --><svg xmlns="http://www.w3.org/2000/svg" xmlns:xlink="http://www.w3.org/1999/xlink" style="isolation:isolate" viewBox="792 185.716 803.653 744.541" width="803.653pt" height="744.541pt"><g><g><defs><filter id="5Xzh3Q5EU0qAzVaQnNA16sdKQMXLm4wX" x="-200%" y="-200%" width="400%" height="400%" filterUnits="objectBoundingBox" color-interpolation-filters="sRGB"><feGaussianBlur xmlns="http://www.w3.org/2000/svg" in="SourceGraphic" stdDeviation="0"/><feOffset xmlns="http://www.w3.org/2000/svg" dx="1" dy="2" result="pf_100_offsetBlur"/><feFlood xmlns="http://www.w3.org/2000/svg" flood-color="#720000" flood-opacity="1"/><feComposite xmlns="http://www.w3.org/2000/svg" in2="pf_100_offsetBlur" operator="in" result="pf_100_dropShadow"/><feBlend xmlns="http://www.w3.org/2000/svg" in="SourceGraphic" in2="pf_100_dropShadow" mode="normal"/></filter></defs><g opacity="0.87" filter="url(#5Xzh3Q5EU0qAzVaQnNA16sdKQMXLm4wX)"><mask id="_mask_DEHlskya6r7qAwxI6xN2c5mLGGqKHkp8" x="-200%" y="-200%" width="400%" height="400%"><rect x="-200%" y="-200%" width="400%" height="400%" style="fill:white;"/><path d=" M 1578.082 747.146 C 1551.78 705.602 1458.483 705.145 1418.109 708.294 C 1377.735 711.443 1412.496 722.69 1369.49 749.591 C 1359.171 756.046 1306.599 792.663 1295.871 799.102 C 1254.538 823.911 1228.118 872.672 1233.196 879.72 C 1239.086 887.896 1233.733 905.822 1265.931 893.601 C 1289.078 884.815 1301.303 862.035 1336.661 839.439 C 1392.893 803.503 1419.157 797.657 1419.157 797.657 C 1419.157 797.657 1373.118 822.122 1342.179 844.726 C 1326.857 855.92 1341.896 865.169 1341.437 866.785 C 1351.35 873.519 1364.981 894.847 1378.586 886.351 C 1391.089 878.544 1421.71 852.065 1446.822 843.419 L 1446.822 843.419 C 1446.843 843.412 1446.867 843.422 1446.876 843.442 C 1446.886 843.463 1446.878 843.487 1446.859 843.499 C 1427.924 855.175 1387.983 881.84 1394.562 886.164 C 1396.191 887.235 1403.473 894.261 1411.824 899.355 C 1423.032 906.192 1435.899 911.243 1437.061 909.906 C 1441.331 904.994 1485.717 876.76 1485.717 876.76 L 1453.648 909.712 C 1453.648 909.712 1460.932 922.188 1474.279 923.979 C 1488.643 925.907 1509.206 917.169 1511.08 917.508 C 1514.694 918.16 1523.453 903.409 1525.592 901.3 C 1526.945 899.965 1563.154 890.116 1563.154 890.116 C 1563.154 890.116 1578.866 881.793 1579.589 875.66 C 1581.557 858.965 1604.385 788.689 1578.082 747.146 L 1578.082 747.146 Z " fill="black" stroke="none"/></mask><path d=" M 1578.082 747.146 C 1551.78 705.602 1458.483 705.145 1418.109 708.294 C 1377.735 711.443 1412.496 722.69 1369.49 749.591 C 1359.171 756.046 1306.599 792.663 1295.871 799.102 C 1254.538 823.911 1228.118 872.672 1233.196 879.72 C 1239.086 887.896 1233.733 905.822 1265.931 893.601 C 1289.078 884.815 1301.303 862.035 1336.661 839.439 C 1392.893 803.503 1419.157 797.657 1419.157 797.657 C 1419.157 797.657 1373.118 822.122 1342.179 844.726 C 1326.857 855.92 1341.896 865.169 1341.437 866.785 C 1351.35 873.519 1364.981 894.847 1378.586 886.351 C 1391.089 878.544 1421.71 852.065 1446.822 843.419 L 1446.822 843.419 C 1446.843 843.412 1446.867 843.422 1446.876 843.442 C 1446.886 843.463 1446.878 843.487 1446.859 843.499 C 1427.924 855.175 1387.983 881.84 1394.562 886.164 C 1396.191 887.235 1403.473 894.261 1411.824 899.355 C 1423.032 906.192 1435.899 911.243 1437.061 909.906 C 1441.331 904.994 1485.717 876.76 1485.717 876.76 L 1453.648 909.712 C 1453.648 909.712 1460.932 922.188 1474.279 923.979 C 1488.643 925.907 1509.206 917.169 1511.08 917.508 C 1514.694 918.16 1523.453 903.409 1525.592 901.3 C 1526.945 899.965 1563.154 890.116 1563.154 890.116 C 1563.154 890.116 1578.866 881.793 1579.589 875.66 C 1581.557 858.965 1604.385 788.689 1578.082 747.146 L 1578.082 747.146 Z " fill="rgb(254,222,123)" mask="url(#_mask_DEHlskya6r7qAwxI6xN2c5mLGGqKHkp8)" vector-effect="non-scaling-stroke" stroke-width="2" stroke="rgb(252,134,29)" stroke-opacity="100" stroke-linejoin="miter" stroke-linecap="butt" stroke-miterlimit="4"/><path d=" M 1578.082 747.146 C 1551.78 705.602 1458.483 705.145 1418.109 708.294 C 1377.735 711.443 1412.496 722.69 1369.49 749.591 C 1359.171 756.046 1306.599 792.663 1295.871 799.102 C 1254.538 823.911 1228.118 872.672 1233.196 879.72 C 1239.086 887.896 1233.733 905.822 1265.931 893.601 C 1289.078 884.815 1301.303 862.035 1336.661 839.439 C 1392.893 803.503 1419.157 797.657 1419.157 797.657 C 1419.157 797.657 1373.118 822.122 1342.179 844.726 C 1326.857 855.92 1341.896 865.169 1341.437 866.785 C 1351.35 873.519 1364.981 894.847 1378.586 886.351 C 1391.089 878.544 1421.71 852.065 1446.822 843.419 L 1446.822 843.419 C 1446.843 843.412 1446.867 843.422 1446.876 843.442 C 1446.886 843.463 1446.878 843.487 1446.859 843.499 C 1427.924 855.175 1387.983 881.84 1394.562 886.164 C 1396.191 887.235 1403.473 894.261 1411.824 899.355 C 1423.032 906.192 1435.899 911.243 1437.061 909.906 C 1441.331 904.994 1485.717 876.76 1485.717 876.76 L 1453.648 909.712 C 1453.648 909.712 1460.932 922.188 1474.279 923.979 C 1488.643 925.907 1509.206 917.169 1511.08 917.508 C 1514.694 918.16 1523.453 903.409 1525.592 901.3 C 1526.945 899.965 1563.154 890.116 1563.154 890.116 C 1563.154 890.116 1578.866 881.793 1579.589 875.66 C 1581.557 858.965 1604.385 788.689 1578.082 747.146 L 1578.082 747.146 Z " fill="rgb(254,222,123)"/></g></g><g style="mix-blend-mode:luminosity;"><path d=" M 1348.1 799.003 L 1349.311 801.418 L 1345.309 803.616 L 1348.004 808.991 L 1345.072 810.601 L 1342.377 805.227 L 1329.265 812.429 L 1328.102 810.11 L 1332.969 787.261 L 1336.214 785.478 L 1344.098 801.201 L 1348.1 799.003 L 1348.1 799.003 Z  M 1331.115 808.332 L 1341.166 802.812 L 1337.268 795.038 L 1337.268 795.038 Q 1336.121 792.751 1334.862 789.771 L 1334.862 789.771 L 1334.714 789.852 L 1334.714 789.852 Q 1334.599 791.874 1334.33 793.307 L 1334.33 793.307 L 1331.115 808.332 L 1331.115 808.332 Z " fill-rule="evenodd" fill="rgb(181,150,85)"/><path d=" M 1366.696 781.778 L 1366.696 781.778 L 1366.696 781.778 Q 1369.736 787.84 1369.032 792.041 L 1369.032 792.041 L 1369.032 792.041 Q 1368.328 796.242 1363.791 798.734 L 1363.791 798.734 L 1363.791 798.734 Q 1359.439 801.125 1355.635 799.308 L 1355.635 799.308 L 1355.635 799.308 Q 1351.83 797.491 1348.863 791.573 L 1348.863 791.573 L 1348.863 791.573 Q 1345.799 785.463 1346.51 781.299 L 1346.51 781.299 L 1346.51 781.299 Q 1347.221 777.134 1351.721 774.663 L 1351.721 774.663 L 1351.721 774.663 Q 1356.11 772.252 1359.935 774.088 L 1359.935 774.088 L 1359.935 774.088 Q 1363.761 775.924 1366.696 781.778 Z  M 1351.961 789.871 L 1351.961 789.871 L 1351.961 789.871 Q 1354.52 794.973 1357.07 796.541 L 1357.07 796.541 L 1357.07 796.541 Q 1359.62 798.108 1362.644 796.447 L 1362.644 796.447 L 1362.644 796.447 Q 1365.706 794.766 1365.896 791.652 L 1365.896 791.652 L 1365.896 791.652 Q 1366.087 788.538 1363.561 783.5 L 1363.561 783.5 L 1363.561 783.5 Q 1361.035 778.461 1358.486 776.873 L 1358.486 776.873 L 1358.486 776.873 Q 1355.937 775.284 1352.876 776.966 L 1352.876 776.966 L 1352.876 776.966 Q 1349.851 778.627 1349.627 781.698 L 1349.627 781.698 L 1349.627 781.698 Q 1349.403 784.769 1351.961 789.871 Z " fill-rule="evenodd" fill="rgb(181,150,85)"/><path d=" M 1393.351 779.26 L 1394.562 781.675 L 1390.56 783.873 L 1393.255 789.247 L 1390.323 790.858 L 1387.628 785.484 L 1374.516 792.686 L 1373.353 790.366 L 1378.22 767.518 L 1381.466 765.735 L 1389.349 781.458 L 1393.351 779.26 L 1393.351 779.26 Z  M 1376.366 788.589 L 1386.417 783.068 L 1382.519 775.295 L 1382.519 775.295 Q 1381.373 773.008 1380.113 770.027 L 1380.113 770.027 L 1379.966 770.108 L 1379.966 770.108 Q 1379.851 772.13 1379.581 773.563 L 1379.581 773.563 L 1376.366 788.589 L 1376.366 788.589 Z " fill-rule="evenodd" fill="rgb(181,150,85)"/></g></g><linearGradient id="_lgradient_18" x1="0.4999999999999999" y1="0" x2="0.5088380453903585" y2="1.0162157386729147" gradientTransform="matrix(555.425,0,0,622.284,856,185.716)" gradientUnits="userSpaceOnUse"><stop offset="1.3043478260869565%" stop-opacity="1" style="stop-color:rgb(189,76,0)"/><stop offset="63.47826086956522%" stop-opacity="1" style="stop-color:rgb(244,251,192)"/><stop offset="98.69565217391305%" stop-opacity="1" style="stop-color:rgb(255,174,0)"/><stop offset="98.69565217391305%" stop-opacity="1" style="stop-color:rgb(255,153,0)"/></linearGradient><ellipse vector-effect="non-scaling-stroke" cx="1133.7127421758569" cy="496.85804769001487" rx="277.7127421758569" ry="311.1419523099851" fill="url(#_lgradient_18)"/><g><g style="opacity:0.95;"><defs><filter id="NjfhpcL5jCzVpI6mZFptt3fDhVs6soDe" x="-200%" y="-200%" width="400%" height="400%" filterUnits="objectBoundingBox" color-interpolation-filters="sRGB"><feGaussianBlur xmlns="http://www.w3.org/2000/svg" in="SourceGraphic" stdDeviation="2.5"/><feOffset xmlns="http://www.w3.org/2000/svg" dx="-4" dy="0" result="pf_100_offsetBlur"/><feFlood xmlns="http://www.w3.org/2000/svg" flood-color="#000000" flood-opacity="1"/><feComposite xmlns="http://www.w3.org/2000/svg" in2="pf_100_offsetBlur" operator="in" result="pf_100_dropShadow"/><feBlend xmlns="http://www.w3.org/2000/svg" in="SourceGraphic" in2="pf_100_dropShadow" mode="normal"/></filter></defs><g opacity="0.82" filter="url(#NjfhpcL5jCzVpI6mZFptt3fDhVs6soDe)"><mask id="_mask_6XCL9Ja6bE8Mq9v4Ji5sB0sF4qEmgE6b" x="-200%" y="-200%" width="400%" height="400%"><rect x="-200%" y="-200%" width="400%" height="400%" style="fill:white;"/><path d=" M 936.778 602.828 C 845.222 597.869 844.757 563.995 836.37 482.329 C 827.984 400.663 963.245 373 1126.462 373 C 1289.678 373 1425.871 395.186 1425.871 482.329 C 1425.871 498.896 1433.456 595.294 1332.246 602.828 C 1231.036 610.362 1191.185 564.879 1141.371 564.195 C 1091.556 563.512 1028.334 607.787 936.778 602.828 L 936.778 602.828 Z " fill="black" stroke="none"/></mask><path d=" M 936.778 602.828 C 845.222 597.869 844.757 563.995 836.37 482.329 C 827.984 400.663 963.245 373 1126.462 373 C 1289.678 373 1425.871 395.186 1425.871 482.329 C 1425.871 498.896 1433.456 595.294 1332.246 602.828 C 1231.036 610.362 1191.185 564.879 1141.371 564.195 C 1091.556 563.512 1028.334 607.787 936.778 602.828 L 936.778 602.828 Z " fill="rgb(0,0,0)" mask="url(#_mask_6XCL9Ja6bE8Mq9v4Ji5sB0sF4qEmgE6b)" vector-effect="non-scaling-stroke" stroke-width="16" stroke="rgb(225,14,137)" stroke-opacity="100" stroke-linejoin="miter" stroke-linecap="butt" stroke-miterlimit="4"/><path d=" M 936.778 602.828 C 845.222 597.869 844.757 563.995 836.37 482.329 C 827.984 400.663 963.245 373 1126.462 373 C 1289.678 373 1425.871 395.186 1425.871 482.329 C 1425.871 498.896 1433.456 595.294 1332.246 602.828 C 1231.036 610.362 1191.185 564.879 1141.371 564.195 C 1091.556 563.512 1028.334 607.787 936.778 602.828 L 936.778 602.828 Z " fill="rgb(0,0,0)"/></g></g><g><path d=" M 1315.625 538.708 L 1311.738 560.586 L 1296.241 557.364 L 1291.334 584.986 L 1264.743 579.456 L 1269.65 551.835 L 1214.706 540.41 L 1218.188 520.81 L 1289.917 446.491 L 1315.011 451.709 L 1300.128 535.486 L 1315.625 538.708 L 1315.625 538.708 Z  M 1242.543 523.511 L 1273.537 529.956 L 1277.553 507.348 L 1277.553 507.348 Q 1278.557 501.697 1280.908 491.031 L 1280.908 491.031 L 1280.908 491.031 Q 1283.26 480.366 1283.831 478.689 L 1283.831 478.689 L 1283.127 478.542 L 1283.127 478.542 Q 1278.541 485.34 1272.699 491.498 L 1272.699 491.498 L 1242.543 523.511 L 1242.543 523.511 Z " fill-rule="evenodd" fill="rgb(0,0,0)"/></g><path d=" M 959.859 535.899 L 965.784 557.557 L 981.888 552.751 L 989.369 580.094 L 1017.002 571.848 L 1009.522 544.506 L 1066.619 527.469 L 1061.311 508.067 L 979.353 440.381 L 953.275 448.163 L 975.963 531.094 L 959.859 535.899 L 959.859 535.899 Z  M 1035.805 513.237 L 1003.597 522.848 L 997.474 500.468 L 997.474 500.468 Q 995.944 494.873 992.573 484.362 L 992.573 484.362 L 992.573 484.362 Q 989.202 473.85 988.459 472.217 L 988.459 472.217 L 989.191 471.999 L 989.191 471.999 Q 994.601 478.388 1001.284 484.007 L 1001.284 484.007 L 1035.805 513.237 L 1035.805 513.237 Z " fill-rule="evenodd" fill="rgb(0,0,0)"/></g><g><radialGradient id="_rgradient_9" fx="0.5000459244722367" fy="0.8878481491273315" cx="0.5000459244722367" cy="0.8878481491273315" r="1" gradientTransform="matrix(83.846,2.24,-4.295,117.958,1096.018,641.987)" gradientUnits="userSpaceOnUse"><stop offset="0%" stop-opacity="1" style="stop-color:rgb(100,88,88)"/><stop offset="100%" stop-opacity="1" style="stop-color:rgb(0,0,0)"/></radialGradient><path d=" M 1138.337 643.118 C 1161.26 643.73 1178.904 670.593 1177.887 698.526 C 1176.091 731.478 1156.214 766.232 1134.06 760.592 C 1106.102 762.412 1088.926 722.988 1094.968 692.613 C 1095.985 664.679 1115.415 642.505 1138.337 643.118 Z " fill="url(#_rgradient_9)"/><defs><filter id="reBTiCjQP5oDGe8Rj6Ncud38v1sV0IGc" x="-200%" y="-200%" width="400%" height="400%" filterUnits="objectBoundingBox" color-interpolation-filters="sRGB"><feGaussianBlur xmlns="http://www.w3.org/2000/svg" in="SourceGraphic" stdDeviation="2.146804531419514"/><feOffset xmlns="http://www.w3.org/2000/svg" dx="0" dy="3" result="pf_100_offsetBlur"/><feFlood xmlns="http://www.w3.org/2000/svg" flood-color="#000000" flood-opacity="0.66"/><feComposite xmlns="http://www.w3.org/2000/svg" in2="pf_100_offsetBlur" operator="in" result="pf_100_dropShadow"/><feBlend xmlns="http://www.w3.org/2000/svg" in="SourceGraphic" in2="pf_100_dropShadow" mode="normal"/></filter></defs><g filter="url(#reBTiCjQP5oDGe8Rj6Ncud38v1sV0IGc)"><linearGradient id="_lgradient_19" x1="1.0830365610544415" y1="0.5304715776027257" x2="-0.16897149050651916" y2="0.516560377029825"><stop offset="1.7391304347826086%" stop-opacity="1" style="stop-color:rgb(0,0,0)"/><stop offset="41.82887886501542%" stop-opacity="1" style="stop-color:rgb(238,0,0)"/><stop offset="57.73362091084463%" stop-opacity="1" style="stop-color:rgb(157,0,0)"/><stop offset="93.04347826086956%" stop-opacity="1" style="stop-color:rgb(0,0,0)"/></linearGradient><path d=" M 1089.163 704.487 C 1090.898 653.535 1108.837 641.88 1134.111 638.973 C 1167.253 635.162 1177.229 667.867 1179.059 704.487 C 1180.862 740.549 1158.919 770 1134.111 770 C 1109.304 770 1089.163 740.644 1089.163 704.487 Z " fill="none" vector-effect="non-scaling-stroke" stroke-width="12" stroke="url(#_lgradient_19)" stroke-linejoin="miter" stroke-linecap="square" stroke-miterlimit="3"/></g></g><g><g opacity="0.15"><path d=" M 870.817 431.058 C 888.175 402.602 938.355 380.467 1011.428 373.603 C 1084.501 366.739 1064.972 364 1135 364 C 1170.903 364 1198.777 368 1248.827 368 C 1298.876 368 1354.522 397.017 1388.457 431.058 C 1422.392 465.099 1403.324 559.136 1403.324 559.136 C 1403.324 559.136 1404.126 446.405 1287.291 405.439 C 1255.068 394.141 1178.33 508.778 1126.804 490.063 C 1067.517 468.528 1032.471 399.502 994.893 400.007 C 881.397 401.53 861.544 593.455 861.544 569.621 C 861.544 560.612 853.459 459.515 870.817 431.058 L 870.817 431.058 Z " fill="rgb(252,134,29)"/></g></g></svg>