<?xml version="1.0" encoding="UTF-8" standalone="no"?><!-- Generator: Gravit.io --><svg xmlns="http://www.w3.org/2000/svg" xmlns:xlink="http://www.w3.org/1999/xlink" style="isolation:isolate" viewBox="-10 -1024 289 239" width="289pt" height="239pt"><path d="M 79.694 -977.208 L 110.442 -976.809 C 110.788 -976.805 111.065 -976.52 111.06 -976.175 L 110.947 -967.428 C 110.942 -967.082 110.658 -966.806 110.313 -966.81 L 79.564 -967.209 C 79.218 -967.214 78.941 -967.498 78.946 -967.844 L 79.059 -976.591 C 79.064 -976.936 79.348 -977.213 79.694 -977.208 Z" style="stroke:none;fill:#FFFF00;stroke-miterlimit:10;"/><path d="M 79.694 -977.208 L 110.442 -976.809 C 110.788 -976.805 111.065 -976.52 111.06 -976.175 L 110.947 -967.428 C 110.942 -967.082 110.658 -966.806 110.313 -966.81 L 79.564 -967.209 C 79.218 -967.214 78.941 -967.498 78.946 -967.844 L 79.059 -976.591 C 79.064 -976.936 79.348 -977.213 79.694 -977.208 Z" style="fill:none;stroke:#000000;stroke-width:1;stroke-linecap:square;stroke-miterlimit:2;"/><g><path d=" M 75 -796 L 138 -796 L 138 -792 L 75 -792 L 75 -796 L 75 -796 Z  M 259 -952 L 263.268 -952 L 263.268 -948.75 L 272.536 -948.75 C 276.104 -948.75 279 -945.854 279 -942.286 L 279 -925.214 C 279 -921.646 276.104 -918.75 272.536 -918.75 L 263.268 -918.75 L 263.268 -912.37 L 259 -912.37 L 259 -884.63 L 262.912 -884.63 L 262.912 -880 L 272.536 -880 C 276.104 -880 279 -877.104 279 -873.536 L 279 -856.464 C 279 -852.896 276.104 -850 272.536 -850 L 262.912 -850 L 262.912 -845 L 259 -845 L 259 -835 L 263.268 -835 C 265.052 -835 266.5 -833.552 266.5 -831.768 L 266.5 -823.232 C 266.5 -821.448 265.052 -820 263.268 -820 L 259 -820 C 258.996 -808.961 250.033 -800 238.993 -800 L 215.6 -800 L 221.554 -789.367 C 222.904 -786.957 221.757 -785 218.995 -785 L 65.005 -785 C 62.243 -785 60.833 -787.082 61.859 -789.647 L 66 -800 L 39.007 -800 C 27.965 -800 19 -808.965 19 -820.007 L 19 -840.014 C 18.816 -840.005 18.631 -840 18.445 -840 L 9.555 -840 C 4.977 -840 1.075 -842.921 -0.385 -847 L -0.486 -847 C -5.737 -847 -10 -851.263 -10 -856.514 L -10 -902.486 C -10 -907.669 -5.847 -911.889 -0.689 -911.997 C 0.453 -916.591 4.609 -920 9.555 -920 L 18.445 -920 C 18.631 -920 18.816 -919.995 19 -919.986 L 19 -939.993 C 19 -951.035 27.965 -960 39.007 -960 L 89 -960 L 89 -964.81 L 86.528 -964.81 L 86.528 -971.522 L 75 -971.522 L 75 -972.522 L 86.528 -972.522 L 86.528 -980 L 92.607 -980 C 96.556 -986.021 103.366 -990 111.098 -990 L 236.902 -990 C 249.098 -990 259 -980.098 259 -967.902 L 259 -952 L 259 -952 Z  M 144 -796 L 207 -796 L 207 -792 L 144 -792 L 144 -796 Z " fill-rule="evenodd" fill="rgb(215,215,215)"/></g><path d="M 116.794 -982.725 L 182.506 -982.725 C 187.359 -982.725 191.3 -978.785 191.3 -973.932 L 191.3 -951.794 C 191.3 -946.94 187.359 -943 182.506 -943 L 116.794 -943 C 111.94 -943 108 -946.94 108 -951.794 L 108 -973.932 C 108 -978.785 111.94 -982.725 116.794 -982.725 Z" style="stroke:none;fill:#5D5D5D;stroke-linecap:square;stroke-miterlimit:2;"/><path d="M 116.794 -982.725 L 182.506 -982.725 C 187.359 -982.725 191.3 -978.785 191.3 -973.932 L 191.3 -951.794 C 191.3 -946.94 187.359 -943 182.506 -943 L 116.794 -943 C 111.94 -943 108 -946.94 108 -951.794 L 108 -973.932 C 108 -978.785 111.94 -982.725 116.794 -982.725 Z" style="fill:none;stroke:#FFFF00;stroke-width:1;stroke-linecap:square;stroke-miterlimit:2;"/><text transform="matrix(1,0,0,1,122,-957.455)" style="font-family:'Open Sans';font-weight:700;font-size:17px;font-style:normal;fill:#ffffff;stroke:none;">1.2 bar</text><text transform="matrix(1.517,0,0,1.333,113.911,-891.406)" style="font-family:'Open Sans';font-weight:700;font-size:10px;font-style:normal;fill:#bbbbbb;stroke:none;">Grundfos </text><text transform="matrix(1.517,0,0,1.333,103.532,-873.249)" style="font-family:'Open Sans';font-weight:700;font-size:10px;font-style:normal;fill:#bbbbbb;stroke:none;">SCALA 2 3-45</text></svg>